#!OML:ASF F:\VICON\USERDATA\Patient Classification 1\PLAYGROUND\JustinFriday\JustinFriday.ASF
:FULLY-SPECIFIED
:DEGREES
4083
root 29.1639 29.3668 -4.54489 -24.7264 32.4333 -2.53214
lowerback 23.1813 -2.02685 -2.97963
upperback 11.3061 -2.96092 -1.00201
thorax -0.413325 -1.45219 1.28534
lowerneck 4.8656 -9.84835 -11.7099
upperneck 28.506 -13.3705 1.61556
head 9.1724 -7.25364 1.59379
rclavicle 1.04362e-014 -2.06736e-014
rhumerus 36.3618 -35.5221 -67.8473
rradius 119.156
rwrist 16.161
rhand -11.8197 -23.0527
rfingers 7.12502
rthumb 14.2307 -52.5451
lclavicle 1.04362e-014 -2.06736e-014
lhumerus 60.7379 -2.78539 65.4565
lradius 82.9524
lwrist -7.42936
lhand -1.41022 -10.1281
lfingers 7.12502
lthumb 24.239 18.3599
rfemur -44.6605 -11.5893 10.0229
rtibia 74.2637
rfoot 1.12535 -13.1804
rtoes 18.4502
lfemur 5.35301 4.24029 -8.99928
ltibia 65.6413
lfoot 18.8079 -43.9262
ltoes 43.6957
4084
root 29.1324 29.3182 -4.51786 -24.7736 32.4488 -2.43402
lowerback 23.6486 -2.04815 -3.06527
upperback 11.2956 -3.02108 -1.10463
thorax -0.649532 -1.47655 1.25571
lowerneck 4.55694 -10.0378 -12.6176
upperneck 29.284 -13.7932 2.4382
head 9.68722 -7.47726 1.92976
rclavicle 3.28989e-014 -1.11319e-014
rhumerus 37.28 -35.6268 -68.4671
rradius 119.548
rwrist 16.1022
rhand -10.8487 -23.5011
rfingers 7.12502
rthumb 15.1663 -52.9253
lclavicle 3.28989e-014 -1.11319e-014
lhumerus 61.107 -2.19678 64.9665
lradius 83.0458
lwrist -6.92764
lhand -1.30193 -9.74199
lfingers 7.12502
lthumb 24.3428 18.7321
rfemur -44.3783 -11.6633 9.84059
rtibia 74.4473
rfoot 1.07643 -13.4246
rtoes 18.2284
lfemur 5.08762 4.35292 -8.74264
ltibia 66.2794
lfoot 20.8249 -43.7695
ltoes 43.6945
4085
root 29.103 29.2737 -4.49472 -24.8181 32.43 -2.46861
lowerback 24.2085 -2.21774 -2.87874
upperback 11.2516 -3.22267 -1.22716
thorax -0.979522 -1.55907 1.08969
lowerneck 4.50354 -9.82543 -12.4174
upperneck 29.0772 -13.3707 1.96093
head 9.53217 -7.29817 1.78061
rclavicle -6.12257e-014 -6.36111e-015
rhumerus 38.1183 -35.5784 -69.0876
rradius 119.556
rwrist 16.2623
rhand -10.3276 -23.4997
rfingers 7.12502
rthumb 15.6682 -52.8853
lclavicle -6.12257e-014 -6.36111e-015
lhumerus 61.3571 -1.37181 64.3514
lradius 83.1586
lwrist -6.40161
lhand -1.18987 -9.3756
lfingers 7.12502
lthumb 24.4502 19.084
rfemur -44.1751 -11.8205 9.8103
rtibia 74.6212
rfoot 0.887505 -13.6489
rtoes 18.3836
lfemur 4.73253 4.55034 -8.33557
ltibia 66.8937
lfoot 22.8951 -43.6341
ltoes 43.6552
4086
root 29.0702 29.2345 -4.47332 -24.8945 32.2057 -2.59069
lowerback 24.7629 -2.38087 -2.71498
upperback 11.2229 -3.41738 -1.29108
thorax -1.28513 -1.64246 0.999484
lowerneck 4.28987 -9.71383 -12.5231
upperneck 29.0104 -13.1178 1.67933
head 9.51507 -7.2124 1.71331
rclavicle -6.55989e-015 -4.05521e-014
rhumerus 38.9243 -35.2835 -69.6496
rradius 119.26
rwrist 16.3633
rhand -10.5183 -22.9756
rfingers 7.12502
rthumb 15.4845 -52.3754
lclavicle -6.55989e-015 -4.05521e-014
lhumerus 61.4874 -0.462737 64.0768
lradius 83.3395
lwrist -6.293
lhand -1.02262 -9.25589
lfingers 7.12502
lthumb 24.6105 19.182
rfemur -44.0085 -11.8044 9.96111
rtibia 74.7906
rfoot 0.570317 -13.879
rtoes 20.14
lfemur 4.38479 4.91032 -7.72408
ltibia 67.4897
lfoot 25.0399 -43.3992
ltoes 43.8353
4087
root 29.0322 29.1861 -4.45452 -24.5375 32.268 -1.97712
lowerback 24.631 -2.13749 -3.46949
upperback 11.2741 -3.26267 -1.36764
thorax -1.1254 -1.59297 1.29795
lowerneck 6.07736 -9.76158 -12.3443
upperneck 27.8399 -13.3505 1.60442
head 8.77943 -7.31832 1.76778
rclavicle -1.38155e-014 5.56597e-015
rhumerus 39.2708 -35.5334 -69.5799
rradius 119.045
rwrist 16.2026
rhand -10.6276 -22.6012
rfingers 7.12502
rthumb 15.3792 -52.0092
lclavicle -1.38155e-014 5.56597e-015
lhumerus 61.7228 -0.269443 64.1855
lradius 83.5824
lwrist -5.99314
lhand -1.07445 -9.07659
lfingers 7.12502
lthumb 24.5608 19.368
rfemur -44.0184 -11.8932 9.38148
rtibia 75.0367
rfoot 0.68382 -13.953
rtoes 20.8491
lfemur 3.9519 5.00158 -8.0086
ltibia 68.0943
lfoot 26.2216 -43.0539
ltoes 44.5298
4088
root 28.998 29.1474 -4.44091 -24.2913 32.4049 -1.56444
lowerback 24.8557 -2.05734 -3.78849
upperback 11.2304 -3.243 -1.51556
thorax -1.27001 -1.58546 1.32449
lowerneck 6.85556 -9.76956 -12.2057
upperneck 27.4133 -13.4078 1.47414
head 8.4805 -7.34539 1.75358
rclavicle -2.32578e-014 2.54444e-014
rhumerus 39.5788 -35.761 -69.5776
rradius 119.067
rwrist 16.0313
rhand -10.4031 -22.8985
rfingers 7.12502
rthumb 15.5954 -52.2898
lclavicle -2.32578e-014 2.54444e-014
lhumerus 61.9095 -0.150358 64.1291
lradius 83.7772
lwrist -5.53192
lhand -1.3144 -8.82893
lfingers 7.12502
lthumb 24.3308 19.6467
rfemur -43.9653 -12.1365 8.93649
rtibia 75.2913
rfoot 0.894641 -14.0371
rtoes 20.5644
lfemur 3.54864 4.75497 -8.12453
ltibia 68.6954
lfoot 26.5513 -43.0205
ltoes 45.4339
4089
root 28.9682 29.1248 -4.42035 -24.8556 32.0288 -2.39805
lowerback 25.3686 -2.24569 -2.97166
upperback 11.2745 -3.31516 -1.40572
thorax -1.51066 -1.59021 1.01894
lowerneck 6.8183 -9.70409 -12.3844
upperneck 27.3686 -13.3219 1.51692
head 8.48244 -7.31809 1.79953
rclavicle -4.12478e-014 -1.90833e-014
rhumerus 40.2871 -35.7187 -69.9704
rradius 119.396
rwrist 15.9505
rhand -9.89296 -23.4943
rfingers 7.12502
rthumb 16.0867 -52.8466
lclavicle -4.12478e-014 -1.90833e-014
lhumerus 62.1783 0.331657 64.2223
lradius 83.9531
lwrist -5.38672
lhand -1.04565 -8.82228
lfingers 7.12502
lthumb 24.5885 19.6186
rfemur -43.573 -12.2192 9.79735
rtibia 75.5222
rfoot 0.564911 -14.3411
rtoes 21.8765
lfemur 3.46539 4.52116 -6.68019
ltibia 69.2525
lfoot 26.0148 -43.8783
ltoes 47.8269
